<svg preserveAspectRatio="none" overflow="visible" style="display: block;" width="81.0018" height="83" viewBox="0 0 81.0018 83" fill="none" xmlns="http://www.w3.org/2000/svg">
<g id="Rectangle [Vectorized]">
<path id="Vector" d="M51.7001 16.2518C53.7671 16.1938 57.0233 15.9947 58.8545 16.9294C59.4724 17.2474 60.0073 17.7121 60.4146 18.2847C61.0339 19.14 61.5633 20.4907 62.104 21.4586C63.882 24.7139 65.8182 27.9858 67.0714 31.5055C68.3208 35.0144 67.2292 38.5496 63.6165 39.7522C64.0881 42.5248 63.8158 45.8972 63.9014 48.7149C64.0216 52.6613 64.2249 56.6115 64.236 60.5589C64.2396 61.8749 64.2307 63.6259 63.2601 64.6164C62.7353 65.1571 62.1595 65.6132 61.3947 65.6658C59.931 65.8291 58.4427 65.6831 56.9727 65.6159C55.2214 65.5344 53.4686 65.4908 51.7156 65.4855C44.3444 65.4935 36.9735 65.5753 29.6039 65.7307C28.6474 65.7479 27.4336 65.7367 26.4945 65.7989C15.9689 66.4959 17.4693 64.7316 17.4914 55.3462L17.4689 46.4789C17.4664 44.8066 17.3872 41.3947 17.7541 39.909C15.3056 39.3653 13.4043 37.1776 13.4747 34.6234C13.5744 31.0097 16.4537 26.8469 18.0333 23.717C19.613 20.5871 20.5605 16.751 24.4985 16.3551C25.661 16.2383 26.7303 16.3047 27.8833 16.3377C29.6425 16.3937 31.4022 16.4332 33.1622 16.456C39.3422 16.5214 45.5229 16.4534 51.7001 16.2518ZM24.5645 34.7513C25.748 36.8306 26.1778 38.1914 28.6604 38.8572C30.5214 39.3562 32.1781 38.8352 33.5115 37.475C34.0159 36.9604 34.6229 35.0016 35.2805 35.1301C35.9076 35.7614 36.1833 36.4021 36.6708 37.1029C37.4795 38.2655 39.1158 38.8401 40.4872 38.8251C41.7871 38.8109 42.8781 38.376 43.8456 37.4727C44.5787 36.7882 45.0206 34.9571 45.8315 34.633C46.138 34.721 46.2276 34.9548 46.397 35.2612C47.2847 36.8666 47.3584 37.3418 48.8996 38.3436C50.0338 38.9603 51.1456 39.082 52.3859 38.6969C53.5436 38.3426 54.5131 37.525 55.0751 36.4291C55.3504 35.898 55.8989 33.9328 56.7358 34.4254C57.0963 34.6377 57.4525 35.8049 57.7158 36.1801C58.7157 37.9415 60.6621 38.9774 62.6458 38.5494C63.7718 38.3064 64.7497 37.8768 65.4277 36.8599C66.5243 35.2153 66.2718 33.1917 65.5629 31.4238C63.879 27.2244 61.4415 23.3858 59.4145 19.3607C58.3686 17.296 55.0472 17.656 53.0898 17.6752C51.9231 17.681 50.7564 17.6698 49.59 17.6416C42.9121 17.5438 36.2333 17.5409 29.5553 17.6328C28.6654 17.6443 25.9106 17.4518 25.2391 17.622C23.9641 17.7447 22.7962 18.0913 21.9462 19.1634C21.2159 20.0845 20.8029 21.213 20.2827 22.2617C18.7053 25.7834 16.4818 28.9588 15.0982 32.5751C14.8079 33.3744 14.6547 34.165 14.7344 35.0187C15.1464 39.4286 20.8192 40.2213 23.2277 37.0997C23.8088 36.3465 24.1003 35.5514 24.5645 34.7513ZM48.9518 43.6041C48.9135 44.0195 48.994 44.4417 49.0029 44.8658C49.0232 45.844 49.0621 46.8141 49.1074 47.7915C49.1909 49.8181 49.2346 51.8461 49.2385 53.8745C49.2486 55.9494 49.2219 58.0243 49.1584 60.0983C49.1158 61.199 48.9544 63.0044 49.0127 64.0301C49.1878 64.0929 49.3805 64.0717 49.5658 64.0794C52.5999 64.2057 55.8741 63.9713 58.888 64.3481C58.5601 61.7516 58.6317 59.4563 58.5753 56.872C58.4765 52.346 58.5642 48.2409 58.8847 43.7415C57.4533 43.9629 55.7411 43.8803 54.273 43.8622C52.4958 43.8402 50.7054 43.8862 48.9518 43.6041ZM35.2029 37.1984C34.7599 37.8851 34.3357 38.4794 33.6804 38.9667C30.5918 41.2644 26.3687 40.3906 24.592 36.8995L24.4888 36.836C23.1872 39.3587 20.9644 40.1625 18.3116 39.9994C18.633 42.6663 18.6261 45.088 18.6742 47.7454C18.7245 50.5251 18.9027 53.3035 18.884 56.0962C18.8668 57.3378 18.8283 58.579 18.7686 59.8192C18.6523 62.5618 18.3892 64.4304 21.7461 64.5047C22.9518 64.5315 24.1249 64.4962 25.3316 64.467L30.5184 64.3678L48.298 64.1033C48.0973 63.2889 48.077 61.0149 48.0442 60.0313C47.8902 56.2887 47.8876 52.5412 48.0364 48.7984C48.0808 47.33 48.023 44.2642 48.5043 43.0321C50.6186 42.667 57.4771 42.3342 59.4789 42.8683C59.4927 44.0426 59.659 45.1897 59.7529 46.3613C59.8205 47.2041 59.7806 47.9784 59.7984 48.8051C59.9175 52.1685 59.935 55.5349 59.8508 58.8994C59.8214 60.3696 59.7888 63.0062 59.4732 64.3664C62.2729 64.3534 62.8731 63.8569 62.8492 60.8467C62.7971 54.2622 62.4778 47.6593 62.832 41.0796C62.8454 40.829 63.0003 40.1543 62.9196 39.9898C62.6624 39.9589 62.5659 40.0241 62.3316 40.0353C60.0743 40.1427 58.327 39.3669 56.9074 37.5322C56.7453 37.326 56.5944 37.1106 56.4554 36.8873C54.1837 41.3224 48.1597 41.4426 45.7641 37.0258C44.8058 38.5484 43.6454 39.557 41.8811 39.9306C39.1723 40.5044 36.6764 39.6432 35.2029 37.1984Z" fill="#959596"/>
<path id="Vector_2" d="M29.6567 31.7316C35.3888 31.5529 41.3662 32.1541 47.1474 31.9629C49.0534 31.8998 62.7041 31.3703 63.549 31.9722L63.4864 32.0864C62.4559 32.6675 53.3085 32.8084 51.5941 32.9688C47.7849 33.1636 43.9699 33.2099 40.1573 33.1076C39.2175 33.0794 38.2791 33.0128 37.3355 32.9683C32.0063 32.717 26.657 32.8177 21.324 32.8887C20.6881 32.8972 18.1233 32.9834 17.7839 32.6385L17.8839 32.5047C18.8267 32.0667 20.3667 32.1703 21.4423 32.0861C24.1719 31.8723 26.9206 31.8204 29.6567 31.7316Z" fill="#959596"/>
<path id="Vector_3" d="M29.7001 23.1989C32.2542 22.8984 31.6232 24.8383 32.4028 26.1382C33.2865 26.9085 36.0326 24.9078 36.6706 24.5834C38.2797 23.765 38.8384 23.3534 40.5515 23.4206C41.4933 24.0486 41.6737 24.4003 42.2086 25.3839C44.521 26.3239 46.5457 24.1314 48.9736 23.9195C51.4831 23.7006 52.1053 25.2963 54.4729 25.5744C55.6455 25.7122 57.246 24.8577 57.7321 24.9768C57.8813 25.5223 56.194 26.4448 55.7506 26.5813C53.7847 27.1864 52.4238 26.3988 50.7277 25.49C47.9521 24.232 45.6209 27.3621 42.6362 26.8391C41.1683 26.5819 40.9532 25.5948 40.2086 24.5007C37.4495 25.0081 36.2954 26.5892 33.7384 27.3108C32.9126 27.4953 32.4252 27.4655 31.7093 27.0857C30.8299 26.6191 31.2283 24.4592 30.5843 24.2329C29.3149 23.7868 26.9566 25.0334 25.8221 25.5664C24.8051 26.0442 24.0977 26.7152 23.0078 26.982C24.2293 25.0322 27.5812 23.7077 29.7001 23.1989Z" fill="#959596"/>
<path id="Vector_4" d="M35.1487 42.5981C37.1679 42.4993 43.4858 42.525 45.2322 43.2156C45.2014 44.0539 45.2931 44.9724 45.3622 45.8128C45.6639 49.4838 45.4653 53.0002 45.3286 56.6583C45.3998 56.6861 45.4707 56.7153 45.541 56.7456C46.9062 57.3366 46.9643 58.3262 46.3996 59.6185C45.42 60.2791 33.0509 60.0537 31.1971 60.0469C29.6708 60.0488 21.5632 60.0514 20.5343 59.6198C20.2585 59.3521 20.2416 58.8536 20.2034 58.4854C20.0817 57.316 20.501 57.1499 21.5044 57.1039C21.2698 55.0077 20.9135 44.4997 21.5156 43.0168C21.5893 42.8353 21.6161 42.8201 21.7864 42.7503C21.9426 42.8413 22.1779 42.9795 22.3578 42.9654C26.6048 42.6347 30.8962 42.6795 35.1487 42.5981ZM22.0042 57.1776C24.4498 56.9088 27.9405 56.8508 30.4315 56.8112L39.2282 56.6972C40.1395 56.6938 44.0721 56.8796 44.5439 56.7605C44.0669 55.0696 44.1552 45.0985 44.6579 43.4746C43.8137 43.656 42.4316 43.7966 41.5583 43.8115C35.9134 43.9079 30.2307 43.9125 24.5891 43.6902C23.9259 43.6641 22.7396 43.6494 22.1375 43.4827C22.4543 47.23 22.4211 50.5899 22.2496 54.3493C22.2165 55.0731 22.1829 56.5389 22.0042 57.1776ZM20.9538 57.9139C21.0201 58.42 21.0405 58.6973 21.0464 59.2077C22.2103 59.0642 23.58 59.0673 24.7688 59.0386C26.6615 58.9784 28.5549 58.9402 30.4484 58.9237C35.2124 58.8467 39.8462 58.5723 44.6287 59.0777C44.9856 59.0871 45.3811 59.0884 45.734 59.1119C45.6615 58.5891 45.6389 58.4013 45.6606 57.866C40.0762 58.0158 34.489 58.0303 28.9039 57.9097C27.6657 57.9 26.4278 57.868 25.1908 57.8136C24.5291 57.7814 22.6629 57.653 22.0302 57.7377C21.6711 57.7944 21.3123 57.8531 20.9538 57.9139Z" fill="#959596"/>
<path id="Vector_5" d="M35.2417 45.7122C35.2732 45.7192 35.3699 45.784 35.3954 45.7996C35.2247 46.9413 26.5459 53.1381 25.1519 54.3416L24.9728 54.274L24.955 54.102C25.6366 52.7445 33.509 46.7316 35.2417 45.7122Z" fill="#959596"/>
<path id="Vector_6" d="M40.8987 50.2519L41.1596 50.2645L41.2081 50.4021C40.9033 51.3357 37.8549 53.4434 36.9154 54.0423C36.7777 54.0799 36.7624 54.0623 36.6263 54.0246C36.3848 53.1723 40.1169 50.5839 40.8987 50.2519Z" fill="#959596"/>
<path id="Vector_7" d="M30.4861 46.5834L30.6613 46.6603L30.6794 46.8582C30.2461 47.7562 27.7497 49.5277 26.7811 49.9668C26.6995 49.9718 26.6698 49.9343 26.5843 49.8861C26.5634 49.0756 29.6741 46.9478 30.4861 46.5834Z" fill="#959596"/>
<path id="Vector_8" d="M50.9857 52.1489C52.0365 52.5201 51.8092 55.0744 51.3062 55.8938L51.1379 55.9017C50.9108 55.8018 50.8033 55.5669 50.6598 55.343C50.6023 54.1858 50.4448 53.189 50.9857 52.1489Z" fill="#959596"/>
</g>
</svg>
